<?xml version="1.0" standalone="no"?>
<!DOCTYPE svg PUBLIC "-//W3C//DTD SVG 20010904//EN"
 "http://www.w3.org/TR/2001/REC-SVG-20010904/DTD/svg10.dtd">
<svg version="1.0" xmlns="http://www.w3.org/2000/svg"
 width="512.000000pt" height="512.000000pt" viewBox="0 0 512.000000 512.000000"
 preserveAspectRatio="xMidYMid meet">
<metadata>
Created by potrace 1.11, written by Peter Selinger 2001-2013
</metadata>
<g transform="translate(0.000000,512.000000) scale(0.100000,-0.100000)"
fill="#000000" stroke="none">
<path d="M3360 5104 c-103 -18 -250 -68 -345 -117 -173 -90 -354 -256 -440
-404 l-19 -32 -24 36 c-169 249 -432 425 -731 489 -85 19 -312 27 -381 14 -25
-5 -58 -11 -75 -14 -206 -36 -438 -160 -594 -317 -140 -140 -251 -335 -302
-529 -20 -77 -19 -99 8 -131 34 -40 76 -39 139 4 149 99 362 182 529 204 77
10 272 9 347 -2 72 -11 207 -41 214 -48 1 -1 -64 -2 -144 -2 -173 0 -230 -7
-358 -45 -358 -107 -658 -387 -787 -737 -27 -75 -53 -168 -63 -225 -10 -62
-13 -323 -5 -368 5 -25 12 -63 15 -84 10 -63 64 -213 107 -300 67 -133 196
-297 293 -373 37 -29 78 -29 111 -1 25 23 26 25 29 193 4 181 17 263 63 395
72 206 215 413 371 536 34 27 68 54 75 59 90 75 289 161 467 201 88 21 392 26
410 8 7 -7 -15 -70 -80 -220 -75 -172 -90 -215 -86 -244 7 -42 39 -69 84 -70
37 0 36 2 18 -36 -66 -133 -167 -351 -172 -369 -12 -50 55 -114 107 -103 18 4
21 16 -50 -233 -33 -119 -61 -224 -61 -232 0 -26 43 -68 76 -75 l31 -7 -68
-235 c-38 -129 -69 -247 -69 -261 0 -36 34 -76 71 -84 21 -5 29 -11 25 -21 -3
-8 -35 -129 -70 -269 -55 -216 -63 -260 -54 -285 11 -32 52 -60 88 -60 16 0
20 -5 16 -17 -15 -50 -146 -592 -146 -606 0 -29 22 -65 47 -76 17 -8 196 -11
589 -11 l566 0 29 29 c33 33 34 43 13 126 -8 33 -17 70 -19 81 -3 12 -29 122
-59 245 -30 123 -53 226 -50 229 3 2 11 5 17 6 7 0 19 2 28 2 30 3 59 41 59
78 0 29 -69 319 -110 459 -22 79 -22 83 9 90 16 3 36 14 44 23 34 38 30 65
-37 301 -37 127 -69 238 -72 246 -4 11 1 15 17 15 40 0 82 42 82 81 0 19 -28
130 -62 247 -33 117 -61 214 -61 216 0 2 8 3 18 2 43 -2 82 14 95 41 19 38 13
68 -29 154 -52 104 -144 300 -144 305 0 2 15 4 33 4 36 1 58 14 76 49 16 28
10 60 -22 132 -45 100 -147 341 -147 348 0 10 4 10 155 15 135 4 237 -7 355
-39 36 -10 69 -22 75 -26 5 -5 16 -9 25 -9 8 0 63 -24 121 -53 279 -141 490
-379 598 -674 48 -135 63 -222 67 -402 3 -126 7 -169 19 -187 17 -27 54 -39
88 -30 20 5 109 86 167 152 95 108 191 283 235 426 32 108 32 106 50 248 27
207 -33 502 -142 698 -188 337 -502 557 -888 620 -55 9 -309 9 -370 -1 l-50
-7 35 16 c49 22 203 62 275 71 123 15 299 9 425 -16 133 -27 282 -89 422 -176
74 -46 118 -56 149 -32 24 19 39 52 34 78 -13 69 -31 132 -61 207 -141 359
-457 625 -842 708 -98 21 -322 25 -422 8z"/>
</g>
</svg>
